<svg height="511pt" viewBox="1 -38 511.999 511" width="511pt" xmlns="http://www.w3.org/2000/svg"><path d="m311.75 57h-111.5c-6.214844 0-11.25-5.035156-11.25-11.25v-26.5c0-6.210938 5.035156-11.25 11.25-11.25h111.5c6.214844 0 11.25 5.039062 11.25 11.25v26.5c0 6.214844-5.035156 11.25-11.25 11.25zm0 0" fill="#f94530"/><path d="m311.75 8h-40c6.214844 0 11.25 5.039062 11.25 11.25v26.5c0 6.214844-5.035156 11.25-11.25 11.25h40c6.214844 0 11.25-5.035156 11.25-11.25v-26.5c0-6.214844-5.035156-11.25-11.25-11.25zm0 0" fill="#d93c2a"/><path d="m59.769531 206.800781 24.59375 97.445313 6.910157 27.386718 9.925781 39.324219c8.363281 33.128907 38.164062 56.34375 72.335937 56.34375h185.003906c34.167969 0 63.972657-23.214843 72.332032-56.34375l41.433594-164.15625zm0 0" fill="#ff940c"/><path d="m420.933594 206.800781-41.429688 164.15625c-8.363281 33.128907-38.164062 56.34375-72.335937 56.34375h51.367187c34.171875 0 63.976563-23.214843 72.335938-56.34375l41.433594-164.15625zm0 0" fill="#e8870b"/><path d="m486.25 138.800781h-460.5c-10.078125 0-18.25 8.171875-18.25 18.25v31.5c0 10.082031 8.171875 18.25 18.25 18.25h460.5c10.078125 0 18.25-8.167969 18.25-18.25v-31.5c0-10.078125-8.171875-18.25-18.25-18.25zm0 0" fill="#f94530"/><path d="m486.25 138.800781h-67c10.078125 0 18.25 8.171875 18.25 18.25v31.5c0 10.082031-8.171875 18.25-18.25 18.25h67c10.078125 0 18.25-8.167969 18.25-18.25v-31.5c0-10.078125-8.171875-18.25-18.25-18.25zm0 0" fill="#d93c2a"/><path d="m350.433594 369.230469 24.21875-125c.789062-4.066407-1.867188-8.003907-5.933594-8.789063-4.078125-.789062-8.003906 1.867188-8.792969 5.933594l-24.21875 125c-.785156 4.070312 1.871094 8.003906 5.9375 8.792969 4.074219.785156 8.003907-1.875 8.789063-5.9375zm0 0"/><path d="m273.535156 367.800781v-125c0-4.140625-3.355468-7.5-7.5-7.5-4.140625 0-7.5 3.359375-7.5 7.5v125c0 4.144531 3.359375 7.5 7.5 7.5 4.144532 0 7.5-3.355469 7.5-7.5zm0 0"/><path d="m190.425781 375.167969c4.066407-.789063 6.726563-4.722657 5.9375-8.792969l-24.21875-125c-.785156-4.066406-4.71875-6.71875-8.789062-5.933594-4.066407.785156-6.726563 4.722656-5.9375 8.789063l24.21875 125c.792969 4.085937 4.742187 6.71875 8.789062 5.9375zm0 0"/><path d="m486.25 131.300781h-9.75c-4.144531 0-7.5 3.359375-7.5 7.5 0 4.144531 3.355469 7.5 7.5 7.5h9.75c5.929688 0 10.75 4.824219 10.75 10.75v31.5c0 5.929688-4.820312 10.75-10.75 10.75h-460.5c-5.929688 0-10.75-4.820312-10.75-10.75v-31.5c0-5.925781 4.820312-10.75 10.75-10.75h422.75c4.144531 0 7.5-3.355469 7.5-7.5 0-4.140625-3.355469-7.5-7.5-7.5h-21v-27.800781c0-43.285156-35.214844-78.5-78.5-78.5h-18.5v-5.75c0-10.339844-8.410156-18.75-18.75-18.75h-111.5c-10.339844 0-18.75 8.410156-18.75 18.75v5.75h-18.5c-43.285156 0-78.5 35.214844-78.5 78.5v27.800781h-58.75c-14.199219 0-25.75 11.550781-25.75 25.75v31.5c0 14.199219 11.550781 25.75 25.75 25.75h28.175781l23.164063 91.78125c1.011718 4.015625 5.09375 6.449219 9.105468 5.4375 4.019532-1.015625 6.449219-5.09375 5.4375-9.109375l-22.238281-88.105468h393.28125l-39.074219 154.816406c-7.53125 29.839844-34.289062 50.683594-65.0625 50.683594h-185.003906c-30.777344 0-57.53125-20.84375-65.0625-50.683594l-9.925781-39.324219c-1.015625-4.015625-5.09375-6.449219-9.109375-5.4375-4.015625 1.015625-6.449219 5.089844-5.433594 9.105469l9.925782 39.328125c9.214843 36.507812 41.949218 62.007812 79.605468 62.007812h185c37.65625 0 70.394532-25.5 79.609375-62.007812l40-158.492188h8.105469c14.195312 0 25.75-11.550781 25.75-25.75v-31.5c0-14.195312-11.550781-25.75-25.75-25.75zm-289.75-112.050781c0-2.066406 1.683594-3.75 3.75-3.75h111.5c2.066406 0 3.75 1.683594 3.75 3.75v26.5c0 2.070312-1.683594 3.75-3.75 3.75h-111.5c-2.066406 0-3.75-1.679688-3.75-3.75zm-97 84.25c0-35.011719 28.484375-63.5 63.5-63.5h18.5v5.75c0 10.339844 8.410156 18.75 18.75 18.75h111.5c10.339844 0 18.75-8.410156 18.75-18.75v-5.75h18.5c35.015625 0 63.5 28.488281 63.5 63.5v27.804688h-313zm0 0"/></svg>